<?xml version="1.0" encoding="utf-8"?>
<svg viewBox="0 0 500 500" xmlns="http://www.w3.org/2000/svg">
  <rect x="101.608" y="249.355" width="288.084" height="234.309" style="stroke: rgb(0, 0, 0); paint-order: stroke; stroke-opacity: 0; fill: rgb(102, 65, 26);"/>
  <rect x="100.785" y="10.383" width="288.084" height="234.309" style="stroke: rgb(0, 0, 0); fill: rgb(110, 163, 226); paint-order: stroke; stroke-opacity: 0;"/>
  <g id="layer1" transform="matrix(1, 0, 0, 1, 125.684692, -682.916321)">
    <g id="g5120" transform="translate(469.14063,-108.20313)">
      <g id="g5116" transform="matrix(1, 0, 0, 1, 4.087091, 0.770122)">
        <path style="fill: rgb(110, 163, 226); fill-opacity: 1; stroke: none;" d="M -353.744 808.35 C -433.407 808.35 -497.987 912.316 -497.987 1040.565 L -209.501 1040.565 C -209.501 912.316 -274.08 808.35 -353.744 808.35 Z" id="path3786"/>
        <path style="fill: rgb(102, 65, 26); fill-opacity: 1; stroke: none;" d="M -353.743 1246.889 C -433.089 1246.889 -497.412 1154.516 -497.412 1040.565 L -210.076 1040.565 C -210.076 1154.516 -274.398 1246.889 -353.743 1246.889 Z" id="path3786-8"/>
      </g>
      <g transform="matrix(1, 0, 0, 1, 300.761902, 152.113083)" id="g4803">
        <rect style="fill:#ffffff;fill-opacity:1;stroke:none" id="rect6868" width="154" height="2" x="-728" y="888.93256"/>
        <rect style="fill:#ffffff;fill-opacity:1;stroke:none" id="rect6868-2-6" width="40" height="2" x="-671" y="-856.93256" transform="scale(1,-1)"/>
        <rect style="fill:#ffffff;fill-opacity:1;stroke:none" id="rect6868-2-8-8" width="30" height="2" x="-666" y="-873.93256" transform="scale(1,-1)"/>
        <rect style="fill:#ffffff;fill-opacity:1;stroke:none" id="rect6868-2-6-7" width="15" height="2" x="-658.5" y="-882.43256" transform="scale(1,-1)"/>
        <rect style="fill:#ffffff;fill-opacity:1;stroke:none" id="rect6868-2-6-7-5" width="15" height="2" x="-658.5" y="-865.43256" transform="scale(1,-1)"/>
        <rect style="fill:#ffffff;fill-opacity:1;stroke:none" id="rect6868-2-6-4" width="40" height="2" x="-671" y="922.93256"/>
        <rect style="fill:#ffffff;fill-opacity:1;stroke:none" id="rect6868-2-8-8-7" width="30" height="2" x="-666" y="905.93256"/>
        <rect style="fill:#ffffff;fill-opacity:1;stroke:none" id="rect6868-2-6-7-6" width="15" height="2" x="-658.5" y="897.43256"/>
        <rect style="fill:#ffffff;fill-opacity:1;stroke:none" id="rect6868-2-6-7-5-7" width="15" height="2" x="-658.5" y="914.43256"/>
        <g style="font-size:12px;font-style:normal;font-variant:normal;font-weight:normal;font-stretch:normal;fill:#ffffff;fill-opacity:1;stroke:none;font-family:Sans;-inkscape-font-specification:Sans" id="text7061" transform="translate(-726.00031,-312.42961)">
          <path d="m 44.739258,1187.7035 1.660156,0 0,-4.7119 -1.704102,0.3515 0,-1.2793 1.694336,-0.3515 1.78711,0 0,5.9912 1.660156,0 0,1.2988 -5.097656,0 0,-1.2988" style="font-size:10px;font-weight:bold;text-align:center;text-anchor:middle;fill:#ffffff;fill-opacity:1;-inkscape-font-specification:Andale Mono Bold" id="path7103"/>
          <path d="m 55.120117,1185.35 c -4e-6,-0.9115 -0.08627,-1.5528 -0.258789,-1.9239 -0.169275,-0.3743 -0.455733,-0.5615 -0.859375,-0.5615 -0.403649,0 -0.691734,0.1872 -0.864258,0.5615 -0.172528,0.3711 -0.258791,1.0124 -0.258789,1.9239 -2e-6,0.9212 0.08626,1.5706 0.258789,1.9482 0.172524,0.3776 0.460609,0.5664 0.864258,0.5664 0.400387,0 0.686845,-0.1888 0.859375,-0.5664 0.172522,-0.3776 0.258785,-1.027 0.258789,-1.9482 M 57,1185.3646 c -6e-6,1.2077 -0.260423,2.1403 -0.78125,2.7979 -0.520839,0.6543 -1.25977,0.9814 -2.216797,0.9814 -0.960289,0 -1.700848,-0.3271 -2.22168,-0.9814 -0.520834,-0.6576 -0.78125,-1.5902 -0.78125,-2.7979 0,-1.2109 0.260416,-2.1435 0.78125,-2.7978 0.520832,-0.6576 1.261391,-0.9863 2.22168,-0.9864 0.957027,10e-5 1.695958,0.3288 2.216797,0.9864 0.520827,0.6543 0.781244,1.5869 0.78125,2.7978" style="font-size:10px;font-weight:bold;text-align:center;text-anchor:middle;fill:#ffffff;fill-opacity:1;-inkscape-font-specification:Andale Mono Bold" id="path7105"/>
        </g>
        <g style="font-size:12px;font-style:normal;font-variant:normal;font-weight:normal;font-stretch:normal;fill:#ffffff;fill-opacity:1;stroke:none;font-family:Sans;-inkscape-font-specification:Sans" id="text7061-9" transform="translate(-731,-312.42961)">
          <path d="m 46.448242,1170.6205 3.208008,0 0,1.3818 -5.297852,0 0,-1.3818 2.661133,-2.3486 c 0.237627,-0.2149 0.413408,-0.4248 0.527344,-0.6299 0.113928,-0.2051 0.170894,-0.4183 0.170898,-0.6397 -4e-6,-0.3418 -0.115563,-0.6168 -0.346679,-0.8252 -0.227868,-0.2083 -0.53223,-0.3125 -0.913086,-0.3125 -0.292972,0 -0.613609,0.063 -0.961914,0.1905 -0.348309,0.1237 -0.72103,0.3092 -1.118164,0.5566 l 0,-1.6016 c 0.423176,-0.1399 0.841469,-0.2457 1.254882,-0.3174 0.413409,-0.075 0.818683,-0.1122 1.215821,-0.1123 0.872391,10e-5 1.549474,0.1921 2.03125,0.5762 0.48502,0.3841 0.727533,0.9196 0.727539,1.6065 -6e-6,0.3971 -0.102545,0.7682 -0.307617,1.1132 -0.205084,0.3418 -0.636399,0.8008 -1.293946,1.377 l -1.557617,1.3672" style="font-size:10px;font-weight:bold;text-align:center;text-anchor:middle;fill:#ffffff;fill-opacity:1;-inkscape-font-specification:Andale Mono Bold" id="path7098"/>
          <path d="m 55.120117,1168.35 c -4e-6,-0.9115 -0.08627,-1.5528 -0.258789,-1.9239 -0.169275,-0.3743 -0.455733,-0.5615 -0.859375,-0.5615 -0.403649,0 -0.691734,0.1872 -0.864258,0.5615 -0.172528,0.3711 -0.258791,1.0124 -0.258789,1.9239 -2e-6,0.9212 0.08626,1.5706 0.258789,1.9482 0.172524,0.3776 0.460609,0.5664 0.864258,0.5664 0.400387,0 0.686845,-0.1888 0.859375,-0.5664 0.172522,-0.3776 0.258785,-1.027 0.258789,-1.9482 M 57,1168.3646 c -6e-6,1.2077 -0.260423,2.1403 -0.78125,2.7979 -0.520839,0.6543 -1.25977,0.9814 -2.216797,0.9814 -0.960289,0 -1.700848,-0.3271 -2.22168,-0.9814 -0.520834,-0.6576 -0.78125,-1.5902 -0.78125,-2.7979 0,-1.2109 0.260416,-2.1435 0.78125,-2.7978 0.520832,-0.6576 1.261391,-0.9863 2.22168,-0.9864 0.957027,10e-5 1.695958,0.3288 2.216797,0.9864 0.520827,0.6543 0.781244,1.5869 0.78125,2.7978" style="font-size:10px;font-weight:bold;text-align:center;text-anchor:middle;fill:#ffffff;fill-opacity:1;-inkscape-font-specification:Andale Mono Bold" id="path7100"/>
        </g>
        <g style="font-size:12px;font-style:normal;font-variant:normal;font-weight:normal;font-stretch:normal;fill:#ffffff;fill-opacity:1;stroke:none;font-family:Sans;-inkscape-font-specification:Sans" id="text7061-0" transform="translate(-677.69531,-312.42961)">
          <path d="m 44.739258,1187.7035 1.660156,0 0,-4.7119 -1.704102,0.3515 0,-1.2793 1.694336,-0.3515 1.78711,0 0,5.9912 1.660156,0 0,1.2988 -5.097656,0 0,-1.2988" style="font-size:10px;font-weight:bold;text-align:center;text-anchor:middle;fill:#ffffff;fill-opacity:1;-inkscape-font-specification:Andale Mono Bold" id="path7103-0"/>
          <path d="m 55.120117,1185.35 c -4e-6,-0.9115 -0.08627,-1.5528 -0.258789,-1.9239 -0.169275,-0.3743 -0.455733,-0.5615 -0.859375,-0.5615 -0.403649,0 -0.691734,0.1872 -0.864258,0.5615 -0.172528,0.3711 -0.258791,1.0124 -0.258789,1.9239 -2e-6,0.9212 0.08626,1.5706 0.258789,1.9482 0.172524,0.3776 0.460609,0.5664 0.864258,0.5664 0.400387,0 0.686845,-0.1888 0.859375,-0.5664 0.172522,-0.3776 0.258785,-1.027 0.258789,-1.9482 M 57,1185.3646 c -6e-6,1.2077 -0.260423,2.1403 -0.78125,2.7979 -0.520839,0.6543 -1.25977,0.9814 -2.216797,0.9814 -0.960289,0 -1.700848,-0.3271 -2.22168,-0.9814 -0.520834,-0.6576 -0.78125,-1.5902 -0.78125,-2.7979 0,-1.2109 0.260416,-2.1435 0.78125,-2.7978 0.520832,-0.6576 1.261391,-0.9863 2.22168,-0.9864 0.957027,10e-5 1.695958,0.3288 2.216797,0.9864 0.520827,0.6543 0.781244,1.5869 0.78125,2.7978" style="font-size:10px;font-weight:bold;text-align:center;text-anchor:middle;fill:#ffffff;fill-opacity:1;-inkscape-font-specification:Andale Mono Bold" id="path7105-4"/>
        </g>
        <g style="font-size:12px;font-style:normal;font-variant:normal;font-weight:normal;font-stretch:normal;fill:#ffffff;fill-opacity:1;stroke:none;font-family:Sans;-inkscape-font-specification:Sans" id="text7061-9-3" transform="translate(-672.3584,-312.42961)">
          <path d="m 46.448242,1170.6205 3.208008,0 0,1.3818 -5.297852,0 0,-1.3818 2.661133,-2.3486 c 0.237627,-0.2149 0.413408,-0.4248 0.527344,-0.6299 0.113928,-0.2051 0.170894,-0.4183 0.170898,-0.6397 -4e-6,-0.3418 -0.115563,-0.6168 -0.346679,-0.8252 -0.227868,-0.2083 -0.53223,-0.3125 -0.913086,-0.3125 -0.292972,0 -0.613609,0.063 -0.961914,0.1905 -0.348309,0.1237 -0.72103,0.3092 -1.118164,0.5566 l 0,-1.6016 c 0.423176,-0.1399 0.841469,-0.2457 1.254882,-0.3174 0.413409,-0.075 0.818683,-0.1122 1.215821,-0.1123 0.872391,10e-5 1.549474,0.1921 2.03125,0.5762 0.48502,0.3841 0.727533,0.9196 0.727539,1.6065 -6e-6,0.3971 -0.102545,0.7682 -0.307617,1.1132 -0.205084,0.3418 -0.636399,0.8008 -1.293946,1.377 l -1.557617,1.3672" style="font-size:10px;font-weight:bold;text-align:center;text-anchor:middle;fill:#ffffff;fill-opacity:1;-inkscape-font-specification:Andale Mono Bold" id="path7098-2"/>
          <path d="m 55.120117,1168.35 c -4e-6,-0.9115 -0.08627,-1.5528 -0.258789,-1.9239 -0.169275,-0.3743 -0.455733,-0.5615 -0.859375,-0.5615 -0.403649,0 -0.691734,0.1872 -0.864258,0.5615 -0.172528,0.3711 -0.258791,1.0124 -0.258789,1.9239 -2e-6,0.9212 0.08626,1.5706 0.258789,1.9482 0.172524,0.3776 0.460609,0.5664 0.864258,0.5664 0.400387,0 0.686845,-0.1888 0.859375,-0.5664 0.172522,-0.3776 0.258785,-1.027 0.258789,-1.9482 M 57,1168.3646 c -6e-6,1.2077 -0.260423,2.1403 -0.78125,2.7979 -0.520839,0.6543 -1.25977,0.9814 -2.216797,0.9814 -0.960289,0 -1.700848,-0.3271 -2.22168,-0.9814 -0.520834,-0.6576 -0.78125,-1.5902 -0.78125,-2.7979 0,-1.2109 0.260416,-2.1435 0.78125,-2.7978 0.520832,-0.6576 1.261391,-0.9863 2.22168,-0.9864 0.957027,10e-5 1.695958,0.3288 2.216797,0.9864 0.520827,0.6543 0.781244,1.5869 0.78125,2.7978" style="font-size:10px;font-weight:bold;text-align:center;text-anchor:middle;fill:#ffffff;fill-opacity:1;-inkscape-font-specification:Andale Mono Bold" id="path7100-0"/>
        </g>
        <g style="font-size:12px;font-style:normal;font-variant:normal;font-weight:normal;font-stretch:normal;fill:#ffffff;fill-opacity:1;stroke:none;font-family:Sans;-inkscape-font-specification:Sans" id="text7061-4" transform="translate(-726.00031,-278.42951)">
          <path d="m 44.739258,1187.7035 1.660156,0 0,-4.7119 -1.704102,0.3515 0,-1.2793 1.694336,-0.3515 1.78711,0 0,5.9912 1.660156,0 0,1.2988 -5.097656,0 0,-1.2988" style="font-size:10px;font-weight:bold;text-align:center;text-anchor:middle;fill:#ffffff;fill-opacity:1;-inkscape-font-specification:Andale Mono Bold" id="path7103-7"/>
          <path d="m 55.120117,1185.35 c -4e-6,-0.9115 -0.08627,-1.5528 -0.258789,-1.9239 -0.169275,-0.3743 -0.455733,-0.5615 -0.859375,-0.5615 -0.403649,0 -0.691734,0.1872 -0.864258,0.5615 -0.172528,0.3711 -0.258791,1.0124 -0.258789,1.9239 -2e-6,0.9212 0.08626,1.5706 0.258789,1.9482 0.172524,0.3776 0.460609,0.5664 0.864258,0.5664 0.400387,0 0.686845,-0.1888 0.859375,-0.5664 0.172522,-0.3776 0.258785,-1.027 0.258789,-1.9482 M 57,1185.3646 c -6e-6,1.2077 -0.260423,2.1403 -0.78125,2.7979 -0.520839,0.6543 -1.25977,0.9814 -2.216797,0.9814 -0.960289,0 -1.700848,-0.3271 -2.22168,-0.9814 -0.520834,-0.6576 -0.78125,-1.5902 -0.78125,-2.7979 0,-1.2109 0.260416,-2.1435 0.78125,-2.7978 0.520832,-0.6576 1.261391,-0.9863 2.22168,-0.9864 0.957027,10e-5 1.695958,0.3288 2.216797,0.9864 0.520827,0.6543 0.781244,1.5869 0.78125,2.7978" style="font-size:10px;font-weight:bold;text-align:center;text-anchor:middle;fill:#ffffff;fill-opacity:1;-inkscape-font-specification:Andale Mono Bold" id="path7105-9"/>
        </g>
        <g style="font-size:12px;font-style:normal;font-variant:normal;font-weight:normal;font-stretch:normal;fill:#ffffff;fill-opacity:1;stroke:none;font-family:Sans;-inkscape-font-specification:Sans" id="text7061-9-0" transform="translate(-731,-244.42951)">
          <path d="m 46.448242,1170.6205 3.208008,0 0,1.3818 -5.297852,0 0,-1.3818 2.661133,-2.3486 c 0.237627,-0.2149 0.413408,-0.4248 0.527344,-0.6299 0.113928,-0.2051 0.170894,-0.4183 0.170898,-0.6397 -4e-6,-0.3418 -0.115563,-0.6168 -0.346679,-0.8252 -0.227868,-0.2083 -0.53223,-0.3125 -0.913086,-0.3125 -0.292972,0 -0.613609,0.063 -0.961914,0.1905 -0.348309,0.1237 -0.72103,0.3092 -1.118164,0.5566 l 0,-1.6016 c 0.423176,-0.1399 0.841469,-0.2457 1.254882,-0.3174 0.413409,-0.075 0.818683,-0.1122 1.215821,-0.1123 0.872391,10e-5 1.549474,0.1921 2.03125,0.5762 0.48502,0.3841 0.727533,0.9196 0.727539,1.6065 -6e-6,0.3971 -0.102545,0.7682 -0.307617,1.1132 -0.205084,0.3418 -0.636399,0.8008 -1.293946,1.377 l -1.557617,1.3672" style="font-size:10px;font-weight:bold;text-align:center;text-anchor:middle;fill:#ffffff;fill-opacity:1;-inkscape-font-specification:Andale Mono Bold" id="path7098-4"/>
          <path d="m 55.120117,1168.35 c -4e-6,-0.9115 -0.08627,-1.5528 -0.258789,-1.9239 -0.169275,-0.3743 -0.455733,-0.5615 -0.859375,-0.5615 -0.403649,0 -0.691734,0.1872 -0.864258,0.5615 -0.172528,0.3711 -0.258791,1.0124 -0.258789,1.9239 -2e-6,0.9212 0.08626,1.5706 0.258789,1.9482 0.172524,0.3776 0.460609,0.5664 0.864258,0.5664 0.400387,0 0.686845,-0.1888 0.859375,-0.5664 0.172522,-0.3776 0.258785,-1.027 0.258789,-1.9482 M 57,1168.3646 c -6e-6,1.2077 -0.260423,2.1403 -0.78125,2.7979 -0.520839,0.6543 -1.25977,0.9814 -2.216797,0.9814 -0.960289,0 -1.700848,-0.3271 -2.22168,-0.9814 -0.520834,-0.6576 -0.78125,-1.5902 -0.78125,-2.7979 0,-1.2109 0.260416,-2.1435 0.78125,-2.7978 0.520832,-0.6576 1.261391,-0.9863 2.22168,-0.9864 0.957027,10e-5 1.695958,0.3288 2.216797,0.9864 0.520827,0.6543 0.781244,1.5869 0.78125,2.7978" style="font-size:10px;font-weight:bold;text-align:center;text-anchor:middle;fill:#ffffff;fill-opacity:1;-inkscape-font-specification:Andale Mono Bold" id="path7100-6"/>
        </g>
        <g style="font-size:12px;font-style:normal;font-variant:normal;font-weight:normal;font-stretch:normal;fill:#ffffff;fill-opacity:1;stroke:none;font-family:Sans;-inkscape-font-specification:Sans" id="text7061-4-7" transform="translate(-677.69531,-278.42951)">
          <path d="m 44.739258,1187.7035 1.660156,0 0,-4.7119 -1.704102,0.3515 0,-1.2793 1.694336,-0.3515 1.78711,0 0,5.9912 1.660156,0 0,1.2988 -5.097656,0 0,-1.2988" style="font-size:10px;font-weight:bold;text-align:center;text-anchor:middle;fill:#ffffff;fill-opacity:1;-inkscape-font-specification:Andale Mono Bold" id="path7103-7-3"/>
          <path d="m 55.120117,1185.35 c -4e-6,-0.9115 -0.08627,-1.5528 -0.258789,-1.9239 -0.169275,-0.3743 -0.455733,-0.5615 -0.859375,-0.5615 -0.403649,0 -0.691734,0.1872 -0.864258,0.5615 -0.172528,0.3711 -0.258791,1.0124 -0.258789,1.9239 -2e-6,0.9212 0.08626,1.5706 0.258789,1.9482 0.172524,0.3776 0.460609,0.5664 0.864258,0.5664 0.400387,0 0.686845,-0.1888 0.859375,-0.5664 0.172522,-0.3776 0.258785,-1.027 0.258789,-1.9482 M 57,1185.3646 c -6e-6,1.2077 -0.260423,2.1403 -0.78125,2.7979 -0.520839,0.6543 -1.25977,0.9814 -2.216797,0.9814 -0.960289,0 -1.700848,-0.3271 -2.22168,-0.9814 -0.520834,-0.6576 -0.78125,-1.5902 -0.78125,-2.7979 0,-1.2109 0.260416,-2.1435 0.78125,-2.7978 0.520832,-0.6576 1.261391,-0.9863 2.22168,-0.9864 0.957027,10e-5 1.695958,0.3288 2.216797,0.9864 0.520827,0.6543 0.781244,1.5869 0.78125,2.7978" style="font-size:10px;font-weight:bold;text-align:center;text-anchor:middle;fill:#ffffff;fill-opacity:1;-inkscape-font-specification:Andale Mono Bold" id="path7105-9-9"/>
        </g>
        <g style="font-size:12px;font-style:normal;font-variant:normal;font-weight:normal;font-stretch:normal;fill:#ffffff;fill-opacity:1;stroke:none;font-family:Sans;-inkscape-font-specification:Sans" id="text7061-9-0-0" transform="translate(-672.3584,-244.42951)">
          <path d="m 46.448242,1170.6205 3.208008,0 0,1.3818 -5.297852,0 0,-1.3818 2.661133,-2.3486 c 0.237627,-0.2149 0.413408,-0.4248 0.527344,-0.6299 0.113928,-0.2051 0.170894,-0.4183 0.170898,-0.6397 -4e-6,-0.3418 -0.115563,-0.6168 -0.346679,-0.8252 -0.227868,-0.2083 -0.53223,-0.3125 -0.913086,-0.3125 -0.292972,0 -0.613609,0.063 -0.961914,0.1905 -0.348309,0.1237 -0.72103,0.3092 -1.118164,0.5566 l 0,-1.6016 c 0.423176,-0.1399 0.841469,-0.2457 1.254882,-0.3174 0.413409,-0.075 0.818683,-0.1122 1.215821,-0.1123 0.872391,10e-5 1.549474,0.1921 2.03125,0.5762 0.48502,0.3841 0.727533,0.9196 0.727539,1.6065 -6e-6,0.3971 -0.102545,0.7682 -0.307617,1.1132 -0.205084,0.3418 -0.636399,0.8008 -1.293946,1.377 l -1.557617,1.3672" style="font-size:10px;font-weight:bold;text-align:center;text-anchor:middle;fill:#ffffff;fill-opacity:1;-inkscape-font-specification:Andale Mono Bold" id="path7098-4-9"/>
          <path d="m 55.120117,1168.35 c -4e-6,-0.9115 -0.08627,-1.5528 -0.258789,-1.9239 -0.169275,-0.3743 -0.455733,-0.5615 -0.859375,-0.5615 -0.403649,0 -0.691734,0.1872 -0.864258,0.5615 -0.172528,0.3711 -0.258791,1.0124 -0.258789,1.9239 -2e-6,0.9212 0.08626,1.5706 0.258789,1.9482 0.172524,0.3776 0.460609,0.5664 0.864258,0.5664 0.400387,0 0.686845,-0.1888 0.859375,-0.5664 0.172522,-0.3776 0.258785,-1.027 0.258789,-1.9482 M 57,1168.3646 c -6e-6,1.2077 -0.260423,2.1403 -0.78125,2.7979 -0.520839,0.6543 -1.25977,0.9814 -2.216797,0.9814 -0.960289,0 -1.700848,-0.3271 -2.22168,-0.9814 -0.520834,-0.6576 -0.78125,-1.5902 -0.78125,-2.7979 0,-1.2109 0.260416,-2.1435 0.78125,-2.7978 0.520832,-0.6576 1.261391,-0.9863 2.22168,-0.9864 0.957027,10e-5 1.695958,0.3288 2.216797,0.9864 0.520827,0.6543 0.781244,1.5869 0.78125,2.7978" style="font-size:10px;font-weight:bold;text-align:center;text-anchor:middle;fill:#ffffff;fill-opacity:1;-inkscape-font-specification:Andale Mono Bold" id="path7100-6-2"/>
        </g>
      </g>
      <rect x="-370.491" y="714.605" width="42.487" height="2.097" style="stroke: rgba(0, 0, 0, 0); fill: rgb(255, 255, 255);" transform="matrix(0.999994, -0.003452, -0.041018, 1.000148, 29.650768, 277.101471)" rx="0.871" ry="0.871"/>
      <rect x="-186.983" y="660.539" width="21.443" height="1.938" style="stroke: rgba(0, 0, 0, 0); fill: rgb(255, 255, 255);" transform="matrix(0.999994, -0.003452, -0.041018, 1.000148, -146.015167, 337.893951)" rx="0.871" ry="0.871"/>
      <rect x="-370.491" y="714.605" width="42.487" height="2.097" style="stroke: rgba(0, 0, 0, 0); fill: rgb(255, 255, 255);" transform="matrix(0.999994, -0.003452, -0.041018, 1.000148, 29.074741, 262.251953)" rx="0.871" ry="0.871"/>
      <rect x="-186.983" y="660.539" width="21.443" height="1.938" style="stroke: rgba(0, 0, 0, 0); fill: rgb(255, 255, 255);" transform="matrix(0.999994, -0.003452, -0.041018, 1.000148, -146.128525, 323.275787)" rx="0.871" ry="0.871"/>
      <rect x="-370.491" y="714.605" width="42.487" height="2.097" style="stroke: rgba(0, 0, 0, 0); fill: rgb(255, 255, 255);" transform="matrix(0.999994, -0.003452, -0.041018, 1.000148, 28.380768, 247.678467)" rx="0.871" ry="0.871"/>
      <rect x="-186.983" y="660.539" width="21.443" height="1.938" style="stroke: rgba(0, 0, 0, 0); fill: rgb(255, 255, 255);" transform="matrix(0.999994, -0.003452, -0.041018, 1.000148, -147.053833, 309.164948)" rx="0.871" ry="0.871"/>
      <rect x="-370.491" y="714.605" width="42.487" height="2.097" style="stroke: rgba(0, 0, 0, 0); fill: rgb(255, 255, 255);" transform="matrix(0.999994, -0.003452, -0.041018, 1.000148, 28.807394, 230.465302)" rx="0.871" ry="0.871"/>
      <rect x="-186.983" y="660.539" width="21.443" height="1.938" style="stroke: rgba(0, 0, 0, 0); fill: rgb(255, 255, 255);" transform="matrix(0.999994, -0.003452, -0.041018, 1.000148, -146.858536, 291.257812)" rx="0.871" ry="0.871"/>
      <rect x="-370.491" y="714.605" width="42.487" height="2.097" style="stroke: rgba(0, 0, 0, 0); fill: rgb(255, 255, 255);" transform="matrix(0.999994, -0.003452, -0.041018, 1.000148, 28.231405, 215.615814)" rx="0.871" ry="0.871"/>
      <rect x="-186.983" y="660.539" width="21.443" height="1.938" style="stroke: rgba(0, 0, 0, 0); fill: rgb(255, 255, 255);" transform="matrix(0.999994, -0.003452, -0.041018, 1.000148, -146.971878, 276.639648)" rx="0.871" ry="0.871"/>
      <rect x="-370.491" y="714.605" width="42.487" height="2.097" style="stroke: rgba(0, 0, 0, 0); fill: rgb(255, 255, 255);" transform="matrix(0.999994, -0.003452, -0.041018, 1.000148, 27.537374, 201.042328)" rx="0.871" ry="0.871"/>
      <rect x="-186.983" y="660.539" width="21.443" height="1.938" style="stroke: rgba(0, 0, 0, 0); fill: rgb(255, 255, 255);" transform="matrix(0.999994, -0.003452, -0.041018, 1.000148, -147.897202, 262.528809)" rx="0.871" ry="0.871"/>
      <rect x="-370.491" y="714.605" width="42.487" height="2.097" style="stroke: rgba(0, 0, 0, 0); fill: rgb(255, 255, 255);" transform="matrix(0.999994, -0.003452, -0.041018, 1.000148, 27.89241, 185.631042)" rx="0.871" ry="0.871"/>
      <rect x="-186.983" y="660.539" width="21.443" height="1.938" style="stroke: rgba(0, 0, 0, 0); fill: rgb(255, 255, 255);" transform="matrix(0.999994, -0.003452, -0.041018, 1.000148, -147.773514, 246.423553)" rx="0.871" ry="0.871"/>
      <rect x="-370.491" y="714.605" width="42.487" height="2.097" style="stroke: rgba(0, 0, 0, 0); fill: rgb(255, 255, 255);" transform="matrix(0.999994, -0.003452, -0.041018, 1.000148, 27.316422, 170.781555)" rx="0.871" ry="0.871"/>
      <rect x="-186.983" y="660.539" width="21.443" height="1.938" style="stroke: rgba(0, 0, 0, 0); fill: rgb(255, 255, 255);" transform="matrix(0.999994, -0.003452, -0.041018, 1.000148, -147.886856, 231.805389)" rx="0.871" ry="0.871"/>
      <rect x="-370.491" y="714.605" width="42.487" height="2.097" style="stroke: rgba(0, 0, 0, 0); fill: rgb(255, 255, 255);" transform="matrix(0.999994, -0.003452, -0.041018, 1.000148, 26.622391, 156.208069)" rx="0.871" ry="0.871"/>
      <rect x="-186.983" y="660.539" width="21.443" height="1.938" style="stroke: rgba(0, 0, 0, 0); fill: rgb(255, 255, 255);" transform="matrix(0.999994, -0.003452, -0.041018, 1.000148, -148.81218, 217.69455)" rx="0.871" ry="0.871"/>
      <rect x="-370.491" y="714.605" width="42.487" height="2.097" style="stroke: rgba(0, 0, 0, 0); fill: rgb(255, 255, 255);" transform="matrix(0.999994, -0.003452, -0.041018, 1.000148, 26.977425, 141.711761)" rx="0.871" ry="0.871"/>
      <rect x="-186.983" y="660.539" width="21.443" height="1.938" style="stroke: rgba(0, 0, 0, 0); fill: rgb(255, 255, 255);" transform="matrix(0.999994, -0.003452, -0.041018, 1.000148, -148.688492, 202.504257)" rx="0.871" ry="0.871"/>
      <rect x="-370.491" y="714.605" width="42.487" height="2.097" style="stroke: rgba(0, 0, 0, 0); fill: rgb(255, 255, 255);" transform="matrix(0.999994, -0.003452, -0.041018, 1.000148, 26.401436, 126.862267)" rx="0.871" ry="0.871"/>
      <rect x="-186.983" y="660.539" width="21.443" height="1.938" style="stroke: rgba(0, 0, 0, 0); fill: rgb(255, 255, 255);" transform="matrix(0.999994, -0.003452, -0.041018, 1.000148, -148.801834, 187.886093)" rx="0.871" ry="0.871"/>
      <rect x="-370.491" y="714.605" width="42.487" height="2.097" style="stroke: rgba(0, 0, 0, 0); fill: rgb(255, 255, 255);" transform="matrix(0.999994, -0.003452, -0.041018, 1.000148, 25.707405, 112.28878)" rx="0.871" ry="0.871"/>
      <rect x="-186.983" y="660.539" width="21.443" height="1.938" style="stroke: rgba(0, 0, 0, 0); fill: rgb(255, 255, 255);" transform="matrix(0.999994, -0.003452, -0.041018, 1.000148, -149.727158, 173.775253)" rx="0.871" ry="0.871"/>
      <rect x="-370.491" y="714.605" width="42.487" height="2.097" style="stroke: rgba(0, 0, 0, 0); fill: rgb(255, 255, 255);" transform="matrix(0.999994, -0.003452, -0.041018, 1.000148, 29.264887, 388.452728)" rx="0.871" ry="0.871"/>
      <rect x="-186.983" y="660.539" width="21.443" height="1.938" style="stroke: rgba(0, 0, 0, 0); fill: rgb(255, 255, 255);" transform="matrix(0.999994, -0.003452, -0.041018, 1.000148, -146.401047, 449.245239)" rx="0.871" ry="0.871"/>
      <rect x="-370.491" y="714.605" width="42.487" height="2.097" style="stroke: rgba(0, 0, 0, 0); fill: rgb(255, 255, 255);" transform="matrix(0.999994, -0.003452, -0.041018, 1.000148, 28.688898, 373.603241)" rx="0.871" ry="0.871"/>
      <rect x="-186.983" y="660.539" width="21.443" height="1.938" style="stroke: rgba(0, 0, 0, 0); fill: rgb(255, 255, 255);" transform="matrix(0.999994, -0.003452, -0.041018, 1.000148, -146.514389, 434.627075)" rx="0.871" ry="0.871"/>
      <rect x="-186.983" y="660.539" width="21.443" height="1.938" style="stroke: rgba(0, 0, 0, 0); fill: rgb(255, 255, 255);" transform="matrix(0.999994, -0.003452, -0.041018, 1.000148, -147.439713, 420.516235)" rx="0.871" ry="0.871"/>
      <rect x="-370.491" y="714.605" width="42.487" height="2.097" style="stroke: rgba(0, 0, 0, 0); fill: rgb(255, 255, 255);" transform="matrix(0.999994, -0.003452, -0.041018, 1.000148, 30.637365, 432.829498)" rx="0.871" ry="0.871"/>
      <rect x="-186.983" y="660.539" width="21.443" height="1.938" style="stroke: rgba(0, 0, 0, 0); fill: rgb(255, 255, 255);" transform="matrix(0.999994, -0.003452, -0.041018, 1.000148, -145.028564, 493.622009)" rx="0.871" ry="0.871"/>
      <rect x="-370.491" y="714.605" width="42.487" height="2.097" style="stroke: rgba(0, 0, 0, 0); fill: rgb(255, 255, 255);" transform="matrix(0.999994, -0.003452, -0.041018, 1.000148, 30.061377, 417.980011)" rx="0.871" ry="0.871"/>
      <rect x="-186.983" y="660.539" width="21.443" height="1.938" style="stroke: rgba(0, 0, 0, 0); fill: rgb(255, 255, 255);" transform="matrix(0.999994, -0.003452, -0.041018, 1.000148, -145.141907, 479.003845)" rx="0.871" ry="0.871"/>
      <rect x="-370.491" y="714.605" width="42.487" height="2.097" style="stroke: rgba(0, 0, 0, 0); fill: rgb(255, 255, 255);" transform="matrix(0.999994, -0.003452, -0.041018, 1.000148, 29.367346, 403.406525)" rx="0.871" ry="0.871"/>
      <rect x="-186.983" y="660.539" width="21.443" height="1.938" style="stroke: rgba(0, 0, 0, 0); fill: rgb(255, 255, 255);" transform="matrix(0.999994, -0.003452, -0.041018, 1.000148, -146.06723, 464.893005)" rx="0.871" ry="0.871"/>
      <rect x="-370.491" y="714.605" width="42.487" height="2.097" style="stroke: rgba(0, 0, 0, 0); fill: rgb(255, 255, 255);" transform="matrix(0.999994, -0.003452, -0.041018, 1.000148, 31.552349, 479.951233)" rx="0.871" ry="0.871"/>
      <rect x="-186.983" y="660.539" width="21.443" height="1.938" style="stroke: rgba(0, 0, 0, 0); fill: rgb(255, 255, 255);" transform="matrix(0.999994, -0.003452, -0.041018, 1.000148, -144.113571, 540.743774)" rx="0.871" ry="0.871"/>
      <rect x="-370.491" y="714.605" width="42.487" height="2.097" style="stroke: rgba(0, 0, 0, 0); fill: rgb(255, 255, 255);" transform="matrix(0.999994, -0.003452, -0.041018, 1.000148, 30.97636, 465.101746)" rx="0.871" ry="0.871"/>
      <rect x="-186.983" y="660.539" width="21.443" height="1.938" style="stroke: rgba(0, 0, 0, 0); fill: rgb(255, 255, 255);" transform="matrix(0.999994, -0.003452, -0.041018, 1.000148, -144.226913, 526.12561)" rx="0.871" ry="0.871"/>
      <rect x="-370.491" y="714.605" width="42.487" height="2.097" style="stroke: rgba(0, 0, 0, 0); fill: rgb(255, 255, 255);" transform="matrix(0.999994, -0.003452, -0.041018, 1.000148, 30.28233, 450.528259)" rx="0.871" ry="0.871"/>
      <rect x="-186.983" y="660.539" width="21.443" height="1.938" style="stroke: rgba(0, 0, 0, 0); fill: rgb(255, 255, 255);" transform="matrix(0.999994, -0.003452, -0.041018, 1.000148, -145.152237, 512.014771)" rx="0.871" ry="0.871"/>
      <rect x="-370.491" y="714.605" width="42.487" height="2.097" style="stroke: rgba(0, 0, 0, 0); fill: rgb(255, 255, 255);" transform="matrix(0.999994, -0.003452, -0.041018, 1.000148, 33.38232, 525.7005)" rx="0.871" ry="0.871"/>
      <rect x="-186.983" y="660.539" width="21.443" height="1.938" style="stroke: rgba(0, 0, 0, 0); fill: rgb(255, 255, 255);" transform="matrix(0.999994, -0.003452, -0.041018, 1.000148, -142.283615, 586.493042)" rx="0.871" ry="0.871"/>
      <rect x="-370.491" y="714.605" width="42.487" height="2.097" style="stroke: rgba(0, 0, 0, 0); fill: rgb(255, 255, 255);" transform="matrix(0.999994, -0.003452, -0.041018, 1.000148, 32.806332, 510.850983)" rx="0.871" ry="0.871"/>
      <rect x="-186.983" y="660.539" width="21.443" height="1.938" style="stroke: rgba(0, 0, 0, 0); fill: rgb(255, 255, 255);" transform="matrix(0.999994, -0.003452, -0.041018, 1.000148, -142.396957, 571.874878)" rx="0.871" ry="0.871"/>
      <rect x="-370.491" y="714.605" width="42.487" height="2.097" style="stroke: rgba(0, 0, 0, 0); fill: rgb(255, 255, 255);" transform="matrix(0.999994, -0.003452, -0.041018, 1.000148, 32.112301, 496.277496)" rx="0.871" ry="0.871"/>
      <rect x="-186.983" y="660.539" width="21.443" height="1.938" style="stroke: rgba(0, 0, 0, 0); fill: rgb(255, 255, 255);" transform="matrix(0.999994, -0.003452, -0.041018, 1.000148, -143.322281, 557.764038)" rx="0.871" ry="0.871"/>
    </g>
  </g>
</svg>